<svg width="178" height="95" viewBox="0 0 178 95" fill="none" xmlns="http://www.w3.org/2000/svg">
<path d="M0.078125 6.3804C0.078125 5.60706 0.198125 4.95373 0.438125 4.4204C0.678125 3.88706 1.01146 3.4604 1.43813 3.1404C1.86479 2.8204 2.34479 2.59373 2.87813 2.4604C3.43813 2.3004 4.01146 2.2204 4.59813 2.2204C5.05146 2.2204 5.45146 2.28706 5.79813 2.4204C6.14479 2.52706 6.47813 2.64706 6.79813 2.7804C7.11813 2.91373 7.42479 3.04706 7.71813 3.1804C8.03813 3.28706 8.37146 3.3404 8.71813 3.3404C9.33146 3.3404 9.90479 3.28706 10.4381 3.1804C10.9981 3.04706 11.5448 2.91373 12.0781 2.7804C12.6381 2.64706 13.1981 2.52706 13.7581 2.4204C14.3181 2.28706 14.8915 2.2204 15.4781 2.2204C16.4115 2.2204 17.2248 2.39373 17.9181 2.7404C18.6381 3.0604 19.2381 3.51373 19.7181 4.1004C20.1981 4.6604 20.5581 5.32706 20.7981 6.1004C21.0381 6.87373 21.1581 7.68706 21.1581 8.5404C21.1581 9.36706 21.0381 10.1004 20.7981 10.7404C20.5581 11.3537 20.2248 11.8737 19.7981 12.3004C19.3981 12.7271 18.9181 13.0471 18.3581 13.2604C17.8248 13.4471 17.2648 13.5404 16.6781 13.5404C16.0115 13.5404 15.4515 13.4204 14.9981 13.1804C14.5715 12.9404 14.2381 12.6204 13.9981 12.2204C13.7581 11.8204 13.5981 11.3537 13.5181 10.8204C13.4648 10.2604 13.4515 9.6604 13.4781 9.0204C13.5048 8.59373 13.3581 8.2604 13.0381 8.0204C12.7448 7.75373 12.3848 7.60706 11.9581 7.5804C11.5315 7.55373 11.0781 7.64706 10.5981 7.8604C10.1448 8.04706 9.77146 8.3804 9.47813 8.8604C9.02479 9.5804 8.78479 10.2604 8.75813 10.9004C8.73146 11.5404 8.85146 12.0071 9.11813 12.3004C9.25146 12.4337 9.35813 12.5004 9.43813 12.5004C9.54479 12.5004 9.65146 12.4871 9.75813 12.4604C9.86479 12.4071 9.99813 12.3537 10.1581 12.3004C10.3448 12.2204 10.5715 12.1804 10.8381 12.1804C11.2115 12.1804 11.5048 12.3804 11.7181 12.7804C11.9315 13.1804 12.0381 13.9271 12.0381 15.0204C12.0381 15.2871 12.0248 15.5937 11.9981 15.9404C11.9981 16.2604 11.9448 16.5671 11.8381 16.8604C11.7315 17.1537 11.5581 17.4071 11.3181 17.6204C11.1048 17.8071 10.7715 17.9004 10.3181 17.9004C10.0248 17.9004 9.75813 17.8337 9.51813 17.7004C9.27813 17.5404 9.06479 17.4071 8.87813 17.3004C8.69146 17.1937 8.54479 17.1537 8.43813 17.1804C8.35813 17.1804 8.31813 17.3404 8.31813 17.6604C8.39813 18.9671 8.59813 19.9671 8.91813 20.6604C9.26479 21.3271 9.62479 21.9004 9.99813 22.3804C10.3981 22.8337 10.7448 23.3004 11.0381 23.7804C11.3581 24.2604 11.5181 24.9537 11.5181 25.8604C11.5181 26.5804 11.3581 27.2071 11.0381 27.7404C10.7181 28.2737 10.2915 28.7271 9.75813 29.1004C9.22479 29.4737 8.62479 29.7537 7.95813 29.9404C7.29146 30.1271 6.61146 30.2204 5.91813 30.2204C5.19813 30.2204 4.51813 30.1537 3.87813 30.0204C3.23813 29.8604 2.66479 29.6071 2.15813 29.2604C1.67813 28.9137 1.29146 28.4471 0.998125 27.8604C0.731458 27.2737 0.598125 26.5537 0.598125 25.7004C0.598125 25.0604 0.638125 24.3937 0.718125 23.7004C0.798125 22.9804 0.891458 22.2471 0.998125 21.5004C1.10479 20.7537 1.19813 20.0071 1.27813 19.2604C1.35813 18.5137 1.39813 17.7671 1.39813 17.0204C1.39813 16.1137 1.33146 15.2204 1.19813 14.3404C1.06479 13.4604 0.904792 12.5804 0.718125 11.7004C0.558125 10.8204 0.411458 9.9404 0.278125 9.0604C0.144792 8.15373 0.078125 7.2604 0.078125 6.3804ZM24.6841 20.8204C24.6841 20.1804 24.6307 19.5671 24.5241 18.9804C24.4174 18.3671 24.2841 17.7804 24.1241 17.2204C23.9907 16.6337 23.8707 16.0471 23.7641 15.4604C23.6574 14.8737 23.6041 14.2737 23.6041 13.6604C23.6041 12.9137 23.7507 12.3137 24.0441 11.8604C24.3374 11.3804 24.7107 11.0071 25.1641 10.7404C25.6174 10.4737 26.1241 10.2871 26.6841 10.1804C27.2707 10.0737 27.8441 10.0204 28.4041 10.0204C29.7641 10.0204 30.8841 10.3271 31.7641 10.9404C32.6441 11.5271 33.0841 12.4471 33.0841 13.7004C33.0841 14.2071 33.0174 14.7937 32.8841 15.4604C32.7774 16.1004 32.6441 16.7671 32.4841 17.4604C32.3507 18.1271 32.2174 18.7937 32.0841 19.4604C31.9774 20.1271 31.9241 20.7271 31.9241 21.2604C31.9241 21.6871 31.9907 22.1537 32.1241 22.6604C32.2574 23.1671 32.4041 23.6871 32.5641 24.2204C32.7507 24.7271 32.9107 25.2337 33.0441 25.7404C33.1774 26.2204 33.2441 26.6737 33.2441 27.1004C33.2441 28.1137 32.8841 28.8871 32.1641 29.4204C31.4707 29.9537 30.2041 30.2204 28.3641 30.2204C27.8841 30.2204 27.3374 30.1804 26.7241 30.1004C26.1374 30.0204 25.5774 29.8604 25.0441 29.6204C24.5107 29.3804 24.0574 29.0604 23.6841 28.6604C23.3374 28.2604 23.1641 27.7404 23.1641 27.1004C23.1641 26.6471 23.2441 26.1537 23.4041 25.6204C23.5641 25.0871 23.7374 24.5537 23.9241 24.0204C24.1107 23.4604 24.2841 22.9137 24.4441 22.3804C24.6041 21.8204 24.6841 21.3004 24.6841 20.8204ZM28.2041 2.2204C29.5107 2.2204 30.5774 2.47373 31.4041 2.9804C32.2307 3.48706 32.7107 4.20706 32.8441 5.1404C32.9241 5.75373 32.8441 6.28706 32.6041 6.7404C32.3641 7.16706 32.0174 7.5404 31.5641 7.8604C31.1374 8.15373 30.6307 8.3804 30.0441 8.5404C29.4574 8.67373 28.8574 8.7404 28.2441 8.7404C27.6574 8.7404 27.0707 8.68706 26.4841 8.5804C25.8974 8.44706 25.3774 8.24706 24.9241 7.9804C24.4974 7.71373 24.1374 7.3804 23.8441 6.9804C23.5774 6.55373 23.4441 6.04706 23.4441 5.4604C23.4441 4.60706 23.8174 3.8604 24.5641 3.2204C25.3107 2.55373 26.5241 2.2204 28.2041 2.2204ZM52.1544 30.2204C51.2477 30.2204 50.4744 30.1671 49.8344 30.0604C49.1944 29.9271 48.6744 29.7137 48.2744 29.4204C47.8744 29.1271 47.581 28.7404 47.3944 28.2604C47.2077 27.7537 47.1144 27.1137 47.1144 26.3404C47.1144 25.7804 47.181 25.1937 47.3144 24.5804C47.4477 23.9671 47.5944 23.3537 47.7544 22.7404C47.941 22.1004 48.101 21.4737 48.2344 20.8604C48.3677 20.2471 48.4344 19.6471 48.4344 19.0604C48.4344 17.8604 48.341 16.9937 48.1544 16.4604C47.9677 15.9271 47.5944 15.6604 47.0344 15.6604C46.741 15.6604 46.4344 15.7937 46.1144 16.0604C45.7944 16.3271 45.501 16.7004 45.2344 17.1804C44.9677 17.6604 44.741 18.2337 44.5544 18.9004C44.3944 19.5404 44.3144 20.2471 44.3144 21.0204C44.3144 21.7671 44.3677 22.4604 44.4744 23.1004C44.6077 23.7137 44.741 24.3004 44.8744 24.8604C45.0077 25.4204 45.101 25.9671 45.1544 26.5004C45.2344 27.0337 45.2344 27.5804 45.1544 28.1404C45.0744 28.6471 44.8477 29.0471 44.4744 29.3404C44.1277 29.6071 43.701 29.8071 43.1944 29.9404C42.6877 30.0737 42.1544 30.1537 41.5944 30.1804C41.061 30.2071 40.5677 30.2204 40.1144 30.2204C39.6077 30.2204 39.061 30.1937 38.4744 30.1404C37.9144 30.0871 37.3944 29.9671 36.9144 29.7804C36.4344 29.5671 36.0344 29.2604 35.7144 28.8604C35.3944 28.4604 35.2344 27.9004 35.2344 27.1804C35.2344 26.5404 35.301 25.9137 35.4344 25.3004C35.5944 24.6871 35.7677 24.0871 35.9544 23.5004C36.141 22.8871 36.301 22.2737 36.4344 21.6604C36.5944 21.0471 36.6744 20.4204 36.6744 19.7804C36.6744 19.2737 36.621 18.7804 36.5144 18.3004C36.4344 17.7937 36.3277 17.2871 36.1944 16.7804C36.0877 16.2737 35.981 15.7671 35.8744 15.2604C35.7944 14.7537 35.7544 14.2471 35.7544 13.7404C35.7544 12.9671 35.901 12.3404 36.1944 11.8604C36.5144 11.3537 36.901 10.9671 37.3544 10.7004C37.8344 10.4337 38.341 10.2604 38.8744 10.1804C39.4077 10.0737 39.901 10.0204 40.3544 10.0204C40.7544 10.0204 41.2477 10.0471 41.8344 10.1004C42.421 10.1271 42.981 10.2337 43.5144 10.4204C44.0744 10.6071 44.5544 10.9004 44.9544 11.3004C45.3544 11.7004 45.5544 12.2604 45.5544 12.9804C46.1677 12.2071 46.9944 11.5271 48.0344 10.9404C49.0744 10.3271 50.3277 10.0204 51.7944 10.0204C52.3544 10.0204 52.8877 10.0871 53.3944 10.2204C53.901 10.3271 54.341 10.5404 54.7144 10.8604C55.0877 11.1537 55.381 11.5537 55.5944 12.0604C55.8077 12.5404 55.9144 13.1671 55.9144 13.9404C55.9144 14.8471 55.7944 15.7537 55.5544 16.6604C55.3144 17.5671 55.1944 18.4871 55.1944 19.4204C55.1944 20.0071 55.261 20.5937 55.3944 21.1804C55.5544 21.7671 55.7144 22.3537 55.8744 22.9404C56.0344 23.5271 56.181 24.1271 56.3144 24.7404C56.4744 25.3271 56.5544 25.9404 56.5544 26.5804C56.5544 27.3537 56.421 27.9804 56.1544 28.4604C55.8877 28.9404 55.541 29.3137 55.1144 29.5804C54.6877 29.8204 54.2077 29.9937 53.6744 30.1004C53.1677 30.1804 52.661 30.2204 52.1544 30.2204ZM58.6347 18.9004C58.7414 17.6471 58.9414 16.4871 59.2347 15.4204C59.528 14.3271 59.9814 13.3804 60.5947 12.5804C61.208 11.7804 62.008 11.1537 62.9947 10.7004C63.9814 10.2471 65.208 10.0204 66.6747 10.0204C67.4747 10.0204 68.1014 10.1404 68.5547 10.3804C69.0347 10.5937 69.408 10.8337 69.6747 11.1004C69.968 11.3404 70.1947 11.5671 70.3547 11.7804C70.5414 11.9671 70.728 12.0204 70.9147 11.9404C71.128 11.8604 71.1547 11.5537 70.9947 11.0204C70.8614 10.4871 70.6614 9.8604 70.3947 9.1404C70.1547 8.39373 69.9014 7.6204 69.6347 6.8204C69.3947 5.99373 69.288 5.2604 69.3147 4.6204C69.448 1.7404 71.4614 0.300397 75.3547 0.300397C76.2347 0.300397 76.968 0.420397 77.5547 0.660397C78.1414 0.900397 78.608 1.2604 78.9547 1.7404C79.3014 2.2204 79.5414 2.80706 79.6747 3.5004C79.8347 4.19373 79.928 4.99373 79.9547 5.9004C79.9814 6.80706 79.9147 7.76706 79.7547 8.7804C79.5947 9.76706 79.408 10.7671 79.1947 11.7804C78.9814 12.7937 78.7814 13.7804 78.5947 14.7404C78.4347 15.7004 78.3547 16.6071 78.3547 17.4604C78.3547 19.0071 78.4214 20.2737 78.5547 21.2604C78.7147 22.2471 78.888 23.1004 79.0747 23.8204C79.2614 24.5137 79.4214 25.1671 79.5547 25.7804C79.7147 26.3671 79.7947 27.0604 79.7947 27.8604C79.7947 28.2871 79.728 28.6604 79.5947 28.9804C79.488 29.2737 79.2614 29.5137 78.9147 29.7004C78.5947 29.8871 78.128 30.0204 77.5147 30.1004C76.928 30.1804 76.1547 30.2204 75.1947 30.2204C73.5147 30.2204 72.3014 30.1137 71.5547 29.9004C70.808 29.6871 70.3414 29.3671 70.1547 28.9404C70.1014 28.7804 70.088 28.6204 70.1147 28.4604C70.168 28.2737 70.2214 28.1004 70.2747 27.9404C70.328 27.7537 70.3414 27.5937 70.3147 27.4604C70.3147 27.3271 70.2347 27.2204 70.0747 27.1404C69.808 27.0071 69.5414 27.1004 69.2747 27.4204C69.0347 27.7137 68.7414 28.0737 68.3947 28.5004C68.0747 28.9271 67.6614 29.3271 67.1547 29.7004C66.648 30.0471 66.008 30.2204 65.2347 30.2204C63.7947 30.2204 62.6214 29.8071 61.7147 28.9804C60.808 28.1537 60.1147 27.1537 59.6347 25.9804C59.1547 24.8071 58.848 23.5804 58.7147 22.3004C58.5814 20.9937 58.5547 19.8604 58.6347 18.9004ZM68.2747 19.8604C68.728 19.8604 69.128 19.5804 69.4747 19.0204C69.8214 18.4337 69.9947 17.7271 69.9947 16.9004C69.9947 16.0471 69.8214 15.3271 69.4747 14.7404C69.128 14.1537 68.728 13.8604 68.2747 13.8604C67.7947 13.8604 67.3814 14.1537 67.0347 14.7404C66.7147 15.3271 66.5547 16.0471 66.5547 16.9004C66.5547 17.7271 66.7147 18.4337 67.0347 19.0204C67.3814 19.5804 67.7947 19.8604 68.2747 19.8604ZM97.3797 26.4604C97.3797 25.7404 97.433 25.1004 97.5397 24.5404C97.6464 23.9804 97.7664 23.4604 97.8997 22.9804C98.033 22.5004 98.1397 22.0604 98.2197 21.6604C98.3264 21.2337 98.3797 20.8071 98.3797 20.3804C98.3797 19.9537 98.2864 19.5137 98.0997 19.0604C97.9397 18.5804 97.6597 18.0604 97.2597 17.5004C96.8597 16.9137 96.313 16.2604 95.6197 15.5404C94.953 14.8204 94.0864 13.9937 93.0197 13.0604C92.353 12.4737 91.7664 11.9404 91.2597 11.4604C90.7797 10.9537 90.3797 10.4471 90.0597 9.9404C89.7664 9.43373 89.5397 8.88706 89.3797 8.3004C89.2464 7.71373 89.1797 7.03373 89.1797 6.2604C89.1797 4.9804 89.6997 3.99373 90.7397 3.3004C91.8064 2.5804 93.3397 2.2204 95.3397 2.2204C96.2197 2.2204 97.0597 2.31373 97.8597 2.5004C98.6864 2.6604 99.3797 2.91373 99.9397 3.2604C100.526 3.60706 100.926 4.0604 101.14 4.6204C101.38 5.15373 101.34 5.80706 101.02 6.5804C100.753 7.27373 100.593 8.1404 100.54 9.1804C100.513 10.1937 100.58 11.1804 100.74 12.1404C100.926 13.1004 101.193 13.9271 101.54 14.6204C101.913 15.2871 102.353 15.6204 102.86 15.6204C103.18 15.6204 103.46 15.4471 103.7 15.1004C103.966 14.7537 104.193 14.3004 104.38 13.7404C104.566 13.1804 104.713 12.5671 104.82 11.9004C104.926 11.2071 104.993 10.5271 105.02 9.8604C105.046 9.19373 105.033 8.56706 104.98 7.9804C104.953 7.39373 104.873 6.92706 104.74 6.5804C104.473 5.80706 104.446 5.1404 104.66 4.5804C104.873 4.0204 105.26 3.56706 105.82 3.2204C106.38 2.87373 107.06 2.6204 107.86 2.4604C108.686 2.3004 109.54 2.2204 110.42 2.2204C112.393 2.2204 113.9 2.5804 114.94 3.3004C116.006 3.99373 116.54 4.9804 116.54 6.2604C116.54 7.03373 116.46 7.71373 116.3 8.3004C116.166 8.88706 115.94 9.43373 115.62 9.9404C115.326 10.4471 114.94 10.9537 114.46 11.4604C113.98 11.9404 113.393 12.4737 112.7 13.0604C111.633 13.9937 110.753 14.8204 110.06 15.5404C109.393 16.2604 108.86 16.9137 108.46 17.5004C108.06 18.0604 107.766 18.5804 107.58 19.0604C107.42 19.5137 107.34 19.9537 107.34 20.3804C107.34 20.8071 107.38 21.2337 107.46 21.6604C107.566 22.0604 107.686 22.5004 107.82 22.9804C107.953 23.4604 108.073 23.9804 108.18 24.5404C108.286 25.1004 108.34 25.7404 108.34 26.4604C108.34 27.1271 108.206 27.7004 107.94 28.1804C107.673 28.6337 107.3 29.0204 106.82 29.3404C106.34 29.6337 105.78 29.8604 105.14 30.0204C104.5 30.1537 103.806 30.2204 103.06 30.2204C102.313 30.2204 101.593 30.1537 100.9 30.0204C100.233 29.8604 99.633 29.6204 99.0997 29.3004C98.593 28.9804 98.1797 28.5937 97.8597 28.1404C97.5397 27.6604 97.3797 27.1004 97.3797 26.4604ZM124.369 30.2204C121.329 30.2204 118.943 29.3404 117.209 27.5804C115.476 25.7937 114.609 23.1937 114.609 19.7804C114.609 18.4737 114.836 17.2337 115.289 16.0604C115.743 14.8604 116.383 13.8204 117.209 12.9404C118.063 12.0337 119.089 11.3137 120.289 10.7804C121.489 10.2471 122.849 9.9804 124.369 9.9804C125.649 9.9804 126.849 10.2071 127.969 10.6604C129.116 11.1137 130.103 11.7671 130.929 12.6204C131.783 13.4471 132.449 14.4737 132.929 15.7004C133.409 16.9004 133.649 18.2604 133.649 19.7804C133.649 21.4871 133.409 22.9937 132.929 24.3004C132.449 25.5804 131.783 26.6604 130.929 27.5404C130.103 28.4204 129.116 29.0871 127.969 29.5404C126.849 29.9937 125.649 30.2204 124.369 30.2204ZM124.449 22.3004C124.983 22.3004 125.436 21.9004 125.809 21.1004C126.183 20.3004 126.369 19.3271 126.369 18.1804C126.369 17.0337 126.183 16.0604 125.809 15.2604C125.436 14.4604 124.983 14.0604 124.449 14.0604C123.916 14.0604 123.449 14.4604 123.049 15.2604C122.676 16.0604 122.489 17.0337 122.489 18.1804C122.489 19.3271 122.676 20.3004 123.049 21.1004C123.449 21.9004 123.916 22.3004 124.449 22.3004ZM136.503 22.2204C136.503 20.8337 136.37 19.4737 136.103 18.1404C135.836 16.8071 135.703 15.4604 135.703 14.1004C135.703 13.2737 135.85 12.5937 136.143 12.0604C136.463 11.5271 136.863 11.1137 137.343 10.8204C137.85 10.5271 138.436 10.3271 139.103 10.2204C139.77 10.0871 140.463 10.0204 141.183 10.0204C142.463 10.0204 143.49 10.3804 144.263 11.1004C145.036 11.8204 145.423 12.8471 145.423 14.1804C145.423 14.7671 145.37 15.3404 145.263 15.9004C145.156 16.4337 145.023 16.9804 144.863 17.5404C144.73 18.1004 144.61 18.6604 144.503 19.2204C144.396 19.7804 144.343 20.3537 144.343 20.9404C144.343 21.1804 144.343 21.4604 144.343 21.7804C144.37 22.0737 144.423 22.3537 144.503 22.6204C144.61 22.8604 144.756 23.0737 144.943 23.2604C145.13 23.4204 145.383 23.5004 145.703 23.5004C146.396 23.5004 146.93 23.2204 147.303 22.6604C147.703 22.0737 147.903 21.3271 147.903 20.4204C147.903 19.8604 147.85 19.2871 147.743 18.7004C147.663 18.0871 147.556 17.4871 147.423 16.9004C147.316 16.2871 147.21 15.6871 147.103 15.1004C146.996 14.5137 146.943 13.9404 146.943 13.3804C146.943 12.7404 147.063 12.2071 147.303 11.7804C147.57 11.3271 147.903 10.9804 148.303 10.7404C148.73 10.4737 149.196 10.2871 149.703 10.1804C150.236 10.0737 150.77 10.0204 151.303 10.0204C152.103 10.0204 152.823 10.0737 153.463 10.1804C154.103 10.2871 154.65 10.5004 155.103 10.8204C155.583 11.1404 155.943 11.6204 156.183 12.2604C156.423 12.8737 156.543 13.7004 156.543 14.7404C156.543 15.3271 156.463 15.9137 156.303 16.5004C156.17 17.0604 156.01 17.6337 155.823 18.2204C155.663 18.7804 155.503 19.3537 155.343 19.9404C155.21 20.5004 155.143 21.0604 155.143 21.6204C155.143 22.2071 155.21 22.7271 155.343 23.1804C155.503 23.6337 155.663 24.0604 155.823 24.4604C155.983 24.8604 156.13 25.2604 156.263 25.6604C156.423 26.0337 156.503 26.4604 156.503 26.9404C156.503 28.2471 156.116 29.1271 155.343 29.5804C154.596 30.0071 153.596 30.2204 152.343 30.2204C151.036 30.2204 150.103 30.0604 149.543 29.7404C148.983 29.4204 148.596 29.0604 148.383 28.6604C148.17 28.2604 148.023 27.9004 147.943 27.5804C147.863 27.2604 147.663 27.1004 147.343 27.1004C147.156 27.1004 146.97 27.2604 146.783 27.5804C146.596 27.9004 146.316 28.2604 145.943 28.6604C145.596 29.0604 145.09 29.4204 144.423 29.7404C143.756 30.0604 142.823 30.2204 141.623 30.2204C141.223 30.2204 140.69 30.1804 140.023 30.1004C139.383 30.0204 138.743 29.8604 138.103 29.6204C137.49 29.3804 136.956 29.0337 136.503 28.5804C136.05 28.1271 135.823 27.5137 135.823 26.7404C135.823 26.3137 135.85 25.9271 135.903 25.5804C135.983 25.2071 136.063 24.8604 136.143 24.5404C136.25 24.1937 136.33 23.8337 136.383 23.4604C136.463 23.0871 136.503 22.6737 136.503 22.2204ZM158.594 27.1004C158.594 26.4871 158.647 25.9137 158.754 25.3804C158.86 24.8204 158.98 24.2737 159.114 23.7404C159.274 23.2071 159.407 22.6737 159.514 22.1404C159.62 21.5804 159.674 21.0071 159.674 20.4204C159.674 19.8604 159.62 19.3137 159.514 18.7804C159.434 18.2204 159.327 17.6737 159.194 17.1404C159.087 16.5804 158.98 16.0337 158.874 15.5004C158.794 14.9404 158.754 14.3804 158.754 13.8204C158.754 12.8604 158.94 12.1271 159.314 11.6204C159.714 11.1137 160.18 10.7404 160.714 10.5004C161.247 10.2604 161.807 10.1271 162.394 10.1004C162.98 10.0471 163.474 10.0204 163.874 10.0204C164.674 10.0204 165.314 10.1137 165.794 10.3004C166.274 10.4604 166.647 10.6471 166.914 10.8604C167.207 11.0737 167.434 11.2737 167.594 11.4604C167.754 11.6204 167.887 11.7004 167.994 11.7004C168.207 11.7004 168.447 11.6204 168.714 11.4604C168.98 11.2737 169.287 11.0737 169.634 10.8604C170.007 10.6471 170.434 10.4604 170.914 10.3004C171.394 10.1137 171.954 10.0204 172.594 10.0204C173.234 10.0204 173.86 10.1537 174.474 10.4204C175.114 10.6871 175.674 11.0737 176.154 11.5804C176.66 12.0871 177.074 12.7004 177.394 13.4204C177.714 14.1404 177.874 14.9537 177.874 15.8604C177.874 16.6071 177.82 17.3004 177.714 17.9404C177.607 18.5804 177.394 19.1404 177.074 19.6204C176.78 20.1004 176.367 20.5004 175.834 20.8204C175.3 21.1137 174.607 21.3137 173.754 21.4204C173.167 21.5004 172.594 21.5004 172.034 21.4204C171.5 21.3404 171.034 21.1671 170.634 20.9004C170.234 20.6337 169.927 20.2871 169.714 19.8604C169.5 19.4071 169.447 18.8471 169.554 18.1804C169.607 17.9137 169.66 17.5937 169.714 17.2204C169.767 16.8204 169.807 16.4471 169.834 16.1004C169.887 15.7271 169.887 15.3937 169.834 15.1004C169.807 14.8071 169.714 14.6337 169.554 14.5804C169.207 14.4471 168.874 14.5937 168.554 15.0204C168.26 15.4204 167.994 15.9671 167.754 16.6604C167.54 17.3271 167.367 18.0737 167.234 18.9004C167.1 19.7004 167.034 20.4337 167.034 21.1004C167.034 21.6071 167.114 22.1137 167.274 22.6204C167.46 23.1004 167.647 23.5804 167.834 24.0604C168.047 24.5404 168.234 25.0204 168.394 25.5004C168.554 25.9804 168.634 26.4604 168.634 26.9404C168.634 28.0604 168.207 28.8871 167.354 29.4204C166.527 29.9537 165.14 30.2204 163.194 30.2204C162.607 30.2204 162.034 30.1804 161.474 30.1004C160.94 29.9937 160.46 29.8204 160.034 29.5804C159.607 29.3404 159.26 29.0204 158.994 28.6204C158.727 28.2204 158.594 27.7137 158.594 27.1004ZM60.0553 94.2204C57.5379 94.2204 55.7246 93.7511 54.6153 92.8124C53.5059 91.8737 52.9086 90.4444 52.8232 88.5244C52.7806 87.2871 52.8446 86.1991 53.0153 85.2604C53.1859 84.3217 53.3779 83.4471 53.5913 82.6364C53.8473 81.8257 54.0819 81.0151 54.2952 80.2044C54.5086 79.3937 54.6153 78.4977 54.6153 77.5164C54.6153 76.5777 54.3593 75.7457 53.8473 75.0204C53.3353 74.2524 52.7593 73.8684 52.1193 73.8684C51.5646 73.8684 51.0953 74.1244 50.7113 74.6364C50.3273 75.1484 50.0073 75.7671 49.7513 76.4924C49.4953 77.2177 49.3033 77.9857 49.1753 78.7964C49.0473 79.6071 48.9833 80.3111 48.9833 80.9084C48.9833 81.7191 49.0686 82.5297 49.2393 83.3404C49.4099 84.1511 49.6019 84.9404 49.8153 85.7084C50.0286 86.4337 50.2206 87.1591 50.3913 87.8844C50.5619 88.5671 50.6473 89.2071 50.6473 89.8044C50.6473 91.4684 50.1139 92.6204 49.0473 93.2604C48.0233 93.9004 46.7006 94.2204 45.0793 94.2204C43.6713 94.2204 42.3913 93.9217 41.2393 93.3244C40.0873 92.6844 39.5113 91.7031 39.5113 90.3804C39.5113 89.3991 39.5966 88.4604 39.7673 87.5644C39.9379 86.6684 40.1299 85.7724 40.3433 84.8764C40.5993 83.9377 40.8126 82.9564 40.9833 81.9324C41.1539 80.9084 41.2393 79.7991 41.2393 78.6044C41.2393 77.9217 41.1753 77.2604 41.0473 76.6204C40.9619 75.9804 40.7913 75.4044 40.5353 74.8924C40.2793 74.3804 39.9593 73.9751 39.5753 73.6764C39.1913 73.3777 38.7219 73.2284 38.1673 73.2284C37.4846 73.2284 36.8659 73.6764 36.3113 74.5724C35.7566 75.4257 35.4792 76.3431 35.4792 77.3244C35.4792 78.0071 35.6073 78.7537 35.8633 79.5644C36.1193 80.3751 36.3753 81.2284 36.6313 82.1244C36.9299 83.0204 37.2073 83.9591 37.4633 84.9404C37.7193 85.9217 37.8472 86.9457 37.8472 88.0124C37.8472 89.8897 37.0366 91.4044 35.4153 92.5564C33.8366 93.6657 31.7886 94.2204 29.2713 94.2204C26.7539 94.2204 24.7273 93.6444 23.1913 92.4924C21.6979 91.3404 20.9513 89.3991 20.9513 86.6684C20.9513 85.4311 21.1219 84.3004 21.4633 83.2764C21.8473 82.2097 22.2526 81.1217 22.6793 80.0124C23.1059 78.9031 23.4899 77.7084 23.8313 76.4284C24.2153 75.1057 24.4073 73.5911 24.4073 71.8844C24.4073 70.0497 24.2153 68.3857 23.8313 66.8924C23.4473 65.3564 22.9993 63.9484 22.4873 62.6684C22.0179 61.3457 21.5913 60.1297 21.2073 59.0204C20.8233 57.9111 20.6313 56.8444 20.6313 55.8204C20.6313 53.5164 21.3993 51.8737 22.9353 50.8924C24.4713 49.9111 26.9459 49.4204 30.3593 49.4204C32.0659 49.4204 33.5166 49.6977 34.7113 50.2524C35.9059 50.8071 36.9086 51.5324 37.7193 52.4284C38.5299 53.3244 39.1913 54.3484 39.7033 55.5004C40.2153 56.6097 40.6633 57.7617 41.0473 58.9564C41.4313 60.1084 41.7513 61.3031 42.0073 62.5404C42.3059 63.7777 42.6046 64.9297 42.9033 65.9964C43.2019 67.0204 43.5006 67.8737 43.7993 68.5564C44.0979 69.2391 44.4606 69.5804 44.8873 69.5804C45.3139 69.5804 45.7406 69.2391 46.1673 68.5564C46.5939 67.8737 46.9566 67.0631 47.2553 66.1244C47.5966 65.1431 47.8739 64.1191 48.0873 63.0524C48.3006 61.9857 48.4073 61.0684 48.4073 60.3004C48.4073 58.1671 48.5779 56.3964 48.9193 54.9884C49.2606 53.5804 49.8366 52.4711 50.6473 51.6604C51.5006 50.8071 52.5886 50.2311 53.9113 49.9324C55.2766 49.5911 56.9406 49.4204 58.9033 49.4204C60.1833 49.4204 61.4419 49.5057 62.6793 49.6764C63.9166 49.8044 65.0259 50.1031 66.0073 50.5724C67.0313 51.0417 67.8419 51.7244 68.4393 52.6204C69.0793 53.5164 69.3993 54.7324 69.3993 56.2684C69.3993 57.4631 69.1433 58.4657 68.6313 59.2764C68.1619 60.0444 67.6286 60.8337 67.0313 61.6444C66.4766 62.4124 65.9433 63.3511 65.4313 64.4604C64.9619 65.5271 64.7273 66.9991 64.7273 68.8764C64.7273 70.8817 64.9406 72.7164 65.3673 74.3804C65.8366 76.0017 66.3273 77.5164 66.8393 78.9244C67.3939 80.3324 67.8846 81.6764 68.3113 82.9564C68.7806 84.1937 69.0153 85.4311 69.0153 86.6684C69.0153 88.8444 68.2686 90.6577 66.7753 92.1084C65.2819 93.5164 63.0419 94.2204 60.0553 94.2204ZM72.8858 57.6764C72.8858 56.1404 73.1204 54.8604 73.5898 53.8364C74.0591 52.7697 74.6991 51.9164 75.5098 51.2764C76.3204 50.6364 77.3018 50.1671 78.4538 49.8684C79.6058 49.5697 80.8431 49.4204 82.1658 49.4204C83.3604 49.4204 84.4911 49.5484 85.5578 49.8044C86.6244 50.0177 87.5418 50.4444 88.3098 51.0844C89.1204 51.7244 89.7604 52.5991 90.2298 53.7084C90.6991 54.7751 90.9338 56.1617 90.9338 57.8684C90.9338 59.1057 90.7844 60.3217 90.4858 61.5164C90.2298 62.6684 89.9098 63.8417 89.5258 65.0364C89.1844 66.2311 88.8644 67.4257 88.5658 68.6204C88.3098 69.8151 88.1818 71.0524 88.1818 72.3324C88.1818 74.4231 88.3738 76.1937 88.7578 77.6444C89.1418 79.0524 89.5471 80.3111 89.9738 81.4204C90.4431 82.4871 90.8484 83.4897 91.1898 84.4284C91.5738 85.3671 91.7658 86.3911 91.7658 87.5004C91.7658 88.8657 91.4244 89.9964 90.7418 90.8924C90.1018 91.7457 89.2698 92.4284 88.2458 92.9404C87.2644 93.4097 86.1764 93.7511 84.9818 93.9644C83.8298 94.1351 82.7631 94.2204 81.7818 94.2204C81.0564 94.2204 80.1604 94.1351 79.0938 93.9644C78.0698 93.7937 77.0671 93.4951 76.0858 93.0684C75.1471 92.5991 74.3364 91.9591 73.6538 91.1484C73.0138 90.2951 72.6938 89.2071 72.6938 87.8844C72.6938 86.6471 72.8644 85.5377 73.2057 84.5564C73.5471 83.5324 73.9098 82.5297 74.2938 81.5484C74.6778 80.5244 75.0404 79.4791 75.3818 78.4124C75.7231 77.3031 75.8938 76.0657 75.8938 74.7004C75.8938 72.7377 75.7231 70.9457 75.3818 69.3244C75.0831 67.7031 74.7418 66.2097 74.3578 64.8444C74.0164 63.4364 73.6751 62.1564 73.3338 61.0044C73.0351 59.8097 72.8858 58.7004 72.8858 57.6764ZM98.0783 74.4444C98.0783 72.2257 97.9076 70.3057 97.5663 68.6844C97.2676 67.0631 96.9263 65.5911 96.5423 64.2684C96.1583 62.9031 95.7956 61.6231 95.4543 60.4284C95.1556 59.2337 95.0063 57.9537 95.0063 56.5884C95.0063 55.1377 95.1983 53.9644 95.5823 53.0684C96.0089 52.1297 96.5849 51.4044 97.3103 50.8924C98.0356 50.3377 98.9103 49.9537 99.9343 49.7404C101.001 49.5271 102.196 49.4204 103.518 49.4204C104.5 49.4204 105.438 49.5484 106.334 49.8044C107.273 50.0177 108.105 50.3804 108.83 50.8924C109.598 51.4044 110.238 52.0871 110.75 52.9404C111.262 53.7511 111.604 54.7751 111.774 56.0124C112.201 55.2444 112.692 54.4764 113.246 53.7084C113.844 52.9404 114.548 52.2364 115.358 51.5964C116.212 50.9564 117.214 50.4444 118.366 50.0604C119.518 49.6337 120.884 49.4204 122.462 49.4204C126.388 49.4204 129.46 50.7644 131.678 53.4524C133.94 56.1404 135.07 60.4711 135.07 66.4444C135.07 69.9857 134.665 72.9084 133.854 75.2124C133.086 77.5164 132.084 79.3511 130.846 80.7164C129.652 82.0817 128.308 83.0417 126.814 83.5964C125.321 84.1084 123.87 84.3644 122.462 84.3644C121.182 84.3644 120.052 84.2151 119.07 83.9164C118.132 83.6177 117.3 83.3191 116.574 83.0204C115.849 82.6791 115.23 82.4017 114.718 82.1884C114.249 81.9751 113.865 81.9751 113.566 82.1884C113.396 82.3164 113.332 82.5297 113.374 82.8284C113.417 83.0844 113.502 83.4897 113.63 84.0444C113.758 84.5564 113.886 85.1964 114.014 85.9644C114.185 86.7324 114.27 87.6711 114.27 88.7804C114.27 89.7191 113.993 90.5297 113.438 91.2124C112.884 91.8951 112.18 92.4711 111.326 92.9404C110.473 93.3671 109.492 93.6871 108.382 93.9004C107.316 94.1137 106.228 94.2204 105.118 94.2204C101.918 94.2204 99.4649 93.8577 97.7583 93.1324C96.0516 92.3644 95.1983 91.0417 95.1983 89.1644C95.1983 87.6711 95.3476 86.4551 95.6463 85.5164C95.9449 84.5351 96.2649 83.5537 96.6063 82.5724C96.9903 81.5911 97.3316 80.4817 97.6302 79.2444C97.9289 78.0071 98.0783 76.4071 98.0783 74.4444ZM120.286 68.1724C121.225 68.1724 121.993 67.5964 122.59 66.4444C123.23 65.2497 123.55 63.8204 123.55 62.1564C123.55 60.5351 123.23 59.1697 122.59 58.0604C121.993 56.9084 121.225 56.3324 120.286 56.3324C119.348 56.3324 118.558 56.9084 117.918 58.0604C117.278 59.1697 116.958 60.5351 116.958 62.1564C116.958 63.8204 117.278 65.2497 117.918 66.4444C118.558 67.5964 119.348 68.1724 120.286 68.1724ZM138.448 57.6764C138.448 56.1404 138.683 54.8604 139.152 53.8364C139.622 52.7697 140.262 51.9164 141.072 51.2764C141.883 50.6364 142.864 50.1671 144.016 49.8684C145.168 49.5697 146.406 49.4204 147.728 49.4204C148.923 49.4204 150.054 49.5484 151.12 49.8044C152.187 50.0177 153.104 50.4444 153.872 51.0844C154.683 51.7244 155.323 52.5991 155.792 53.7084C156.262 54.7751 156.496 56.1617 156.496 57.8684C156.496 59.1057 156.347 60.3217 156.048 61.5164C155.792 62.6684 155.472 63.8417 155.088 65.0364C154.747 66.2311 154.427 67.4257 154.128 68.6204C153.872 69.8151 153.744 71.0524 153.744 72.3324C153.744 74.4231 153.936 76.1937 154.32 77.6444C154.704 79.0524 155.11 80.3111 155.536 81.4204C156.006 82.4871 156.411 83.4897 156.752 84.4284C157.136 85.3671 157.328 86.3911 157.328 87.5004C157.328 88.8657 156.987 89.9964 156.304 90.8924C155.664 91.7457 154.832 92.4284 153.808 92.9404C152.827 93.4097 151.739 93.7511 150.544 93.9644C149.392 94.1351 148.326 94.2204 147.344 94.2204C146.619 94.2204 145.723 94.1351 144.656 93.9644C143.632 93.7937 142.63 93.4951 141.648 93.0684C140.71 92.5991 139.899 91.9591 139.216 91.1484C138.576 90.2951 138.256 89.2071 138.256 87.8844C138.256 86.6471 138.427 85.5377 138.768 84.5564C139.11 83.5324 139.472 82.5297 139.856 81.5484C140.24 80.5244 140.603 79.4791 140.944 78.4124C141.286 77.3031 141.456 76.0657 141.456 74.7004C141.456 72.7377 141.286 70.9457 140.944 69.3244C140.646 67.7031 140.304 66.2097 139.92 64.8444C139.579 63.4364 139.238 62.1564 138.896 61.0044C138.598 59.8097 138.448 58.7004 138.448 57.6764Z" fill="black"/>
</svg>
