<svg width="26" height="26" viewBox="0 0 26 26" fill="none" xmlns="http://www.w3.org/2000/svg">
<path d="M9.74328 0.989502C12.2385 0.989502 14.6316 1.96303 16.396 3.69593C18.1604 5.42882 19.1516 7.77913 19.1516 10.2298C19.1516 12.5186 18.2976 14.6225 16.8936 16.2431L17.2844 16.627H18.4279L25.665 23.7349L23.4939 25.8673L16.2567 18.7593V17.6363L15.8659 17.2524C14.1587 18.6837 11.9878 19.47 9.74328 19.4701C7.24804 19.4701 4.85499 18.4966 3.09059 16.7637C1.32619 15.0308 0.334961 12.6805 0.334961 10.2298C0.334961 7.77913 1.32619 5.42882 3.09059 3.69593C4.85499 1.96303 7.24804 0.989502 9.74328 0.989502ZM9.74328 3.83267C6.12469 3.83267 3.22983 6.67585 3.22983 10.2298C3.22983 13.7838 6.12469 16.627 9.74328 16.627C13.3619 16.627 16.2567 13.7838 16.2567 10.2298C16.2567 6.67585 13.3619 3.83267 9.74328 3.83267Z" fill="white"/>
</svg>
